<mxfile host="app.diagrams.net" modified="2024-05-14T01:33:20.264Z" agent="Mozilla/5.0 (Windows NT 10.0; Win64; x64) AppleWebKit/537.36 (KHTML, like Gecko) Chrome/124.0.0.0 Safari/537.36 Edg/124.0.0.0" version="24.4.0" etag="-lY_bY1C0mLsBwVOD9QN" type="github">
  <diagram name="Page-1" id="UfkzIRFS2-7uMK3CAqn3">
    <mxGraphModel>
      <root>
        <mxCell id="0" />
        <mxCell id="1" parent="0" />
      </root>
    </mxGraphModel>
  </diagram>
</mxfile>
